<?xml version="1.0" encoding="UTF-8" standalone="no"?>
<!-- Created with Inkscape (http://www.inkscape.org/) -->

<svg
   width="54.267681mm"
   height="14.257997mm"
   viewBox="0 0 54.267681 14.257997"
   version="1.1"
   id="svg5"
   inkscape:version="1.3.2 (091e20e, 2023-11-25)"
   sodipodi:docname="marisanamashalogo2.svg"
   xmlns:inkscape="http://www.inkscape.org/namespaces/inkscape"
   xmlns:sodipodi="http://sodipodi.sourceforge.net/DTD/sodipodi-0.dtd"
   xmlns="http://www.w3.org/2000/svg"
   xmlns:svg="http://www.w3.org/2000/svg">
  <sodipodi:namedview
     id="namedview7"
     pagecolor="#ffffff"
     bordercolor="#000000"
     borderopacity="0.25"
     inkscape:showpageshadow="2"
     inkscape:pageopacity="0.0"
     inkscape:pagecheckerboard="0"
     inkscape:deskcolor="#d1d1d1"
     inkscape:document-units="mm"
     showgrid="false"
     inkscape:zoom="0.93"
     inkscape:cx="181.1828"
     inkscape:cy="104.30108"
     inkscape:window-width="1440"
     inkscape:window-height="779"
     inkscape:window-x="0"
     inkscape:window-y="25"
     inkscape:window-maximized="0"
     inkscape:current-layer="g26">
    <inkscape:grid
       id="grid1"
       units="px"
       originx="-23.601992"
       originy="-70.998488"
       spacingx="0.26458333"
       spacingy="0.26458334"
       empcolor="#0099e5"
       empopacity="0.30196078"
       color="#0099e5"
       opacity="0.14901961"
       empspacing="5"
       dotted="false"
       gridanglex="30"
       gridanglez="30"
       visible="false" />
  </sodipodi:namedview>
  <defs
     id="defs2" />
  <g
     inkscape:label="Layer 1"
     inkscape:groupmode="layer"
     id="layer1"
     transform="translate(-23.601992,-70.998488)">
    <g
       id="g26"
       transform="matrix(-0.11788553,0,0,0.11788553,46.822099,66.313098)"
       style="fill:#1a1a1a">
      <path
         d="m 180.30381,49.373214 c 8.05777,0 14.54537,6.487593 14.54537,14.545365 V 135.631 c 0,8.05776 -6.4876,14.54536 -14.54537,14.54536 h -0.39584 c -0.58541,0 -1.15955,-0.044 -1.72651,-0.11058 h -66.68378 c -0.56699,0.0666 -1.14106,0.11058 -1.72651,0.11058 h -0.39584 c -8.0579,0 -14.54537,-6.48752 -14.54537,-14.54536 V 63.918579 c 0,-8.057853 6.48747,-14.545365 14.54537,-14.545365 h 0.39584 c 4.6069,0 8.69413,2.125572 11.35538,5.447729 0.22808,0.16884 0.4607,0.328049 0.68161,0.512114 l 23.03115,19.19056 23.03167,-19.19056 c 0.22086,-0.184026 0.45305,-0.343306 0.6811,-0.512114 2.66115,-3.322145 6.749,-5.447729 11.35589,-5.447729 z m -11.15746,50.683726 c -0.002,0.004 -0.004,0.008 -0.006,0.0124 -0.0214,0.0443 0.0242,0.19535 0.0212,0.14625 -0.003,-0.053 -0.01,-0.10585 -0.015,-0.15865 z"
         style="fill:#5c5c5c;stroke:none;stroke-width:8.03553;stroke-opacity:1;fill-opacity:1"
         id="path24" />
      <path
         style="fill:#ffffff;fill-opacity:1;stroke:none;stroke-width:1.09828"
         d="m 158.10139,93.990284 c 2.3081,0.39717 4.54226,1.96001 6.39292,3.32316 5.04623,3.716916 9.10055,9.047426 10.4583,15.274336 0.81701,3.74736 0.37051,7.50527 0.98699,11.23604 0.25741,1.557 0.61619,3.06964 1.40599,4.45562 0.97718,1.71534 3.17562,3.50659 1.73563,5.61499 -2.61738,3.83244 -5.63038,-1.22633 -7.22545,-3.09656 v 12.78583 c 0,1.77983 0.36795,4.06197 -0.71713,5.61018 -0.53107,0.75734 -1.46465,1.37283 -2.38238,1.51615 -2.65418,0.41474 -6.8691,0.53628 -9.49249,-0.0323 -0.88267,-0.1925 -1.73096,-0.74239 -2.23394,-1.49225 -1.69577,-2.52774 -0.67194,-7.86908 -0.67194,-10.83042 -3.48603,1.10237 -8.14596,1.17719 -11.62337,0 0,2.93588 1.03511,8.34078 -0.71723,10.84076 -0.53108,0.75734 -1.46462,1.37291 -2.38243,1.51619 -2.6541,0.41404 -6.86916,0.53625 -9.49243,-0.0324 -0.88268,-0.19246 -1.731,-0.74243 -2.23397,-1.49223 -1.08359,-1.6153 -0.67194,-3.94069 -0.67194,-5.79364 v -13.17328 c -2.07071,2.06503 -4.78348,4.01777 -7.74895,4.45569 0,4.08524 -0.60321,7.94895 -4.26182,10.44301 -4.98144,3.39552 -13.79621,1.4325 -15.01979,-5.21243 -0.53628,-2.91126 2.36572,-5.40626 5.13981,-4.34657 1.62544,0.62077 1.93772,2.36133 3.30166,3.16613 2.73467,1.61341 3.09121,-2.42049 3.09121,-4.05014 -2.3745,-0.35037 -4.62419,-1.65383 -6.38507,-3.24079 -0.85172,-0.76754 -1.79464,-1.98236 -1.02625,-3.1415 1.62967,-2.4581 4.62411,1.04145 6.24896,1.87642 3.77849,1.94147 8.45447,1.4654 11.81715,-1.0925 0.97143,-0.73899 2.45941,-1.85389 2.72981,-3.11917 0.26066,-1.22178 -1.15462,-2.55944 -2.34234,-2.03417 -0.97229,0.43031 -1.6675,1.42744 -2.51845,2.0482 -1.63966,1.19612 -3.78926,1.76911 -5.81167,1.47756 -0.78034,-0.11249 -2.21955,-0.38285 -2.59528,-1.17982 -0.35293,-0.75052 -0.11646,-2.01632 -0.11646,-2.83021 v -6.19924 c 0,-3.44795 -0.12145,-6.88536 0.67862,-10.26735 1.31721,-5.56664 5.49779,-10.100406 10.55735,-12.541916 2.6433,-1.27562 5.48953,-0.96465 8.13642,-1.90689 1.07161,-0.38158 1.92161,-1.40152 2.90585,-1.97276 1.99823,-1.15969 4.46959,-1.78697 6.78035,-1.78697 11.11038,0 17.65404,13.435036 10.56482,22.083026 -1.7069,2.0822 -4.07259,3.77803 -6.6904,4.47794 -1.47062,0.39326 -3.80119,0.11696 -5.01091,1.07277 -1.43415,1.13306 -0.49858,3.09839 1.13649,3.31635 2.00601,0.26777 4.54784,-0.56033 6.39286,-1.27523 6.61954,-2.56438 11.33691,-9.53077 11.03467,-16.69684 -0.11821,-2.807736 -1.06219,-5.200316 -2.12334,-7.749016 m -34.28989,18.086026 c -2.43776,-0.43291 -3.19823,3.22975 -0.77405,3.72556 2.43763,0.49857 3.17841,-3.29832 0.77405,-3.72556 z"
         id="path107" />
    </g>
    <g
       id="text236"
       style="font-weight:bold;font-size:8.46643px;line-height:6.84987px;font-family:'Apple SD Gothic Neo';-inkscape-font-specification:'Apple SD Gothic Neo, Bold';letter-spacing:-0.214307px;stroke-width:2.64576;fill:#5c5c5c;fill-opacity:1"
       aria-label="Marisana&#10;Masha">
      <path
         style="font-weight:normal;font-family:Lexend;-inkscape-font-specification:'Lexend, @wght=800';font-variation-settings:'wght' 800;fill:#5c5c5c;fill-opacity:1"
         d="m 39.4506,77.898628 v -5.926501 h 1.464693 l 2.158939,3.513569 -1.142968,-0.0085 2.184339,-3.505102 h 1.413894 v 5.926501 h -1.617088 v -1.583222 q 0,-0.761979 0.03387,-1.371562 0.04233,-0.609583 0.135463,-1.210699 l 0.186262,0.499519 -1.515491,2.345201 h -0.558784 l -1.481626,-2.345201 0.186262,-0.499519 q 0.09313,0.567251 0.126996,1.168367 0.04233,0.59265 0.04233,1.413894 v 1.583222 z m 8.793981,0.0762 q -0.558784,0 -1.007505,-0.296325 -0.440254,-0.304791 -0.702713,-0.82971 -0.253993,-0.533385 -0.253993,-1.210699 0,-0.694248 0.253993,-1.219166 0.253993,-0.524919 0.702713,-0.821244 0.448721,-0.304792 1.032905,-0.304792 0.313258,0 0.575717,0.08467 0.262459,0.08466 0.457187,0.245526 0.194728,0.160862 0.338657,0.364057 0.14393,0.203194 0.23706,0.440254 l -0.321724,-0.01693 v -1.024438 h 1.549357 v 4.512607 h -1.583223 v -1.100636 l 0.347124,0.01693 q -0.0762,0.245527 -0.228594,0.457187 -0.143929,0.211661 -0.35559,0.372523 -0.21166,0.152396 -0.47412,0.245527 -0.253993,0.08466 -0.567251,0.08466 z m 0.448721,-1.295364 q 0.270926,0 0.465654,-0.11853 0.194728,-0.126996 0.296325,-0.364056 0.110064,-0.23706 0.110064,-0.558784 0,-0.330191 -0.110064,-0.567251 -0.101597,-0.23706 -0.296325,-0.35559 -0.194728,-0.126997 -0.465654,-0.126997 -0.270925,0 -0.465653,0.126997 -0.186262,0.11853 -0.287859,0.35559 -0.101597,0.23706 -0.101597,0.567251 0,0.321724 0.101597,0.558784 0.101597,0.23706 0.287859,0.364056 0.194728,0.11853 0.465653,0.11853 z m 3.383921,1.219166 v -4.512607 h 1.473159 l 0.08467,1.481625 -0.330191,-0.253992 q 0.110063,-0.372523 0.338657,-0.668848 0.23706,-0.304792 0.567251,-0.474121 0.33019,-0.177795 0.694247,-0.177795 0.152396,0 0.287859,0.0254 0.135462,0.01693 0.253992,0.0508 l -0.431787,1.744085 q -0.09313,-0.05926 -0.26246,-0.101597 -0.169328,-0.0508 -0.364056,-0.0508 -0.169329,0 -0.304792,0.05927 -0.135463,0.0508 -0.228593,0.152396 -0.09313,0.101597 -0.14393,0.245526 -0.0508,0.135463 -0.0508,0.321725 v 2.158939 z m 3.88345,0 v -4.512607 h 1.574756 v 4.512607 z m 0.787378,-5.367716 q -0.431788,0 -0.668848,-0.194728 -0.23706,-0.203194 -0.23706,-0.567251 0,-0.338657 0.23706,-0.550318 0.245527,-0.220127 0.668848,-0.220127 0.423322,0 0.660382,0.203194 0.245526,0.194728 0.245526,0.567251 0,0.338657 -0.245526,0.550318 -0.245527,0.211661 -0.660382,0.211661 z m 3.350055,5.452381 q -0.702714,0 -1.236099,-0.220128 -0.533385,-0.220127 -0.82971,-0.56725 l 0.922841,-0.795845 q 0.270925,0.245527 0.609582,0.364057 0.347124,0.11853 0.609583,0.11853 0.09313,0 0.169329,-0.01693 0.0762,-0.01693 0.11853,-0.0508 0.0508,-0.04233 0.0762,-0.08466 0.03387,-0.0508 0.03387,-0.110064 0,-0.143929 -0.14393,-0.220127 -0.0762,-0.03387 -0.253993,-0.08466 -0.169328,-0.05926 -0.457187,-0.126997 -0.35559,-0.09313 -0.634982,-0.220127 -0.279392,-0.135463 -0.47412,-0.313258 -0.186262,-0.177795 -0.296325,-0.406388 -0.101597,-0.23706 -0.101597,-0.516452 0,-0.338658 0.152395,-0.601117 0.152396,-0.262459 0.423322,-0.448721 0.270926,-0.194728 0.609583,-0.287858 0.338657,-0.101598 0.694247,-0.101598 0.397922,0 0.745046,0.08467 0.35559,0.0762 0.660381,0.228593 0.313258,0.14393 0.558785,0.35559 l -0.812777,0.897442 q -0.14393,-0.126996 -0.338658,-0.23706 -0.186261,-0.110064 -0.389455,-0.177795 -0.203195,-0.0762 -0.38099,-0.0762 -0.110063,0 -0.186261,0.01693 -0.0762,0.01693 -0.126997,0.0508 -0.0508,0.03387 -0.0762,0.08467 -0.0254,0.0508 -0.0254,0.110063 0,0.0762 0.04233,0.14393 0.04233,0.06773 0.135463,0.110063 0.0762,0.04233 0.253993,0.110064 0.186262,0.05927 0.533385,0.152396 0.389456,0.110063 0.677315,0.253992 0.287858,0.14393 0.465653,0.330191 0.126997,0.14393 0.194728,0.321725 0.06773,0.169328 0.06773,0.380989 0,0.448721 -0.26246,0.804311 -0.253993,0.347123 -0.702713,0.550318 -0.448721,0.194728 -1.024438,0.194728 z m 4.128979,-0.0085 q -0.558784,0 -1.007505,-0.296325 -0.440255,-0.304791 -0.702714,-0.82971 -0.253993,-0.533385 -0.253993,-1.210699 0,-0.694248 0.253993,-1.219166 0.253993,-0.524919 0.702714,-0.821244 0.448721,-0.304792 1.032904,-0.304792 0.313258,0 0.575717,0.08467 0.26246,0.08466 0.457188,0.245526 0.194728,0.160862 0.338657,0.364057 0.143929,0.203194 0.23706,0.440254 l -0.321724,-0.01693 v -1.024438 h 1.549356 v 4.512607 h -1.583222 v -1.100636 l 0.347123,0.01693 q -0.0762,0.245527 -0.228593,0.457187 -0.143929,0.211661 -0.35559,0.372523 -0.211661,0.152396 -0.47412,0.245527 -0.253993,0.08466 -0.567251,0.08466 z m 0.448721,-1.295364 q 0.270925,0 0.465653,-0.11853 0.194728,-0.126996 0.296325,-0.364056 0.110064,-0.23706 0.110064,-0.558784 0,-0.330191 -0.110064,-0.567251 -0.101597,-0.23706 -0.296325,-0.35559 -0.194728,-0.126997 -0.465653,-0.126997 -0.270926,0 -0.465654,0.126997 -0.186261,0.11853 -0.287859,0.35559 -0.101597,0.23706 -0.101597,0.567251 0,0.321724 0.101597,0.558784 0.101598,0.23706 0.287859,0.364056 0.194728,0.11853 0.465654,0.11853 z m 3.383921,1.219166 v -4.512607 h 1.473159 l 0.06773,0.914375 -0.321725,0.101597 q 0.08467,-0.321725 0.330191,-0.567251 0.245526,-0.253993 0.584184,-0.397922 0.338657,-0.14393 0.71118,-0.14393 0.507986,0 0.855109,0.211661 0.35559,0.203195 0.533385,0.61805 0.186262,0.406388 0.186262,0.999038 v 2.776989 h -1.574756 v -2.649992 q 0,-0.220127 -0.06773,-0.364057 -0.06773,-0.152395 -0.203194,-0.228593 -0.135463,-0.0762 -0.321724,-0.06773 -0.14393,0 -0.270926,0.04233 -0.11853,0.04233 -0.211661,0.135463 -0.09313,0.08467 -0.143929,0.194728 -0.04233,0.110064 -0.04233,0.245527 v 2.692324 h -0.787378 q -0.287859,0 -0.491053,0 -0.194728,0 -0.304792,0 z m 6.948293,0.0762 q -0.558784,0 -1.007505,-0.296325 -0.440254,-0.304791 -0.702714,-0.82971 -0.253992,-0.533385 -0.253992,-1.210699 0,-0.694248 0.253992,-1.219166 0.253993,-0.524919 0.702714,-0.821244 0.448721,-0.304792 1.032904,-0.304792 0.313258,0 0.575718,0.08467 0.262459,0.08466 0.457187,0.245526 0.194728,0.160862 0.338657,0.364057 0.143929,0.203194 0.23706,0.440254 l -0.321724,-0.01693 v -1.024438 h 1.549356 v 4.512607 h -1.583222 v -1.100636 l 0.347124,0.01693 q -0.0762,0.245527 -0.228594,0.457187 -0.143929,0.211661 -0.35559,0.372523 -0.211661,0.152396 -0.47412,0.245527 -0.253993,0.08466 -0.567251,0.08466 z m 0.448721,-1.295364 q 0.270926,0 0.465654,-0.11853 0.194727,-0.126996 0.296325,-0.364056 0.110063,-0.23706 0.110063,-0.558784 0,-0.330191 -0.110063,-0.567251 -0.101598,-0.23706 -0.296325,-0.35559 -0.194728,-0.126997 -0.465654,-0.126997 -0.270926,0 -0.465654,0.126997 -0.186261,0.11853 -0.287858,0.35559 -0.101597,0.23706 -0.101597,0.567251 0,0.321724 0.101597,0.558784 0.101597,0.23706 0.287858,0.364056 0.194728,0.11853 0.465654,0.11853 z"
         id="path15" />
      <path
         style="font-weight:normal;font-family:Lexend;-inkscape-font-specification:'Lexend, @wght=800';font-variation-settings:'wght' 800;fill:#5c5c5c;fill-opacity:1"
         d="m 39.4506,85.17182 v -5.926501 h 1.464693 l 2.158939,3.513568 -1.142968,-0.0085 2.184339,-3.505102 h 1.413894 v 5.926501 h -1.617088 v -1.583223 q 0,-0.761978 0.03387,-1.371561 0.04233,-0.609583 0.135463,-1.2107 l 0.186262,0.49952 -1.515491,2.345201 h -0.558784 l -1.481626,-2.345201 0.186262,-0.49952 q 0.09313,0.567251 0.126996,1.168368 0.04233,0.59265 0.04233,1.413893 v 1.583223 z m 8.793981,0.0762 q -0.558784,0 -1.007505,-0.296325 -0.440254,-0.304792 -0.702713,-0.82971 -0.253993,-0.533386 -0.253993,-1.2107 0,-0.694247 0.253993,-1.219166 0.253993,-0.524918 0.702713,-0.821243 0.448721,-0.304792 1.032905,-0.304792 0.313258,0 0.575717,0.08466 0.262459,0.08467 0.457187,0.245527 0.194728,0.160862 0.338657,0.364056 0.14393,0.203195 0.23706,0.440255 l -0.321724,-0.01693 v -1.024438 h 1.549357 v 4.512607 h -1.583223 v -1.100636 l 0.347124,0.01693 q -0.0762,0.245526 -0.228594,0.457187 -0.143929,0.211661 -0.35559,0.372523 -0.21166,0.152396 -0.47412,0.245526 -0.253993,0.08467 -0.567251,0.08467 z m 0.448721,-1.295364 q 0.270926,0 0.465654,-0.11853 0.194728,-0.126996 0.296325,-0.364057 0.110064,-0.23706 0.110064,-0.558784 0,-0.330191 -0.110064,-0.567251 -0.101597,-0.23706 -0.296325,-0.35559 -0.194728,-0.126996 -0.465654,-0.126996 -0.270925,0 -0.465653,0.126996 -0.186262,0.11853 -0.287859,0.35559 -0.101597,0.23706 -0.101597,0.567251 0,0.321724 0.101597,0.558784 0.101597,0.237061 0.287859,0.364057 0.194728,0.11853 0.465653,0.11853 z m 4.924812,1.30383 q -0.702714,0 -1.236099,-0.220127 -0.533385,-0.220127 -0.82971,-0.567251 l 0.922841,-0.795844 q 0.270925,0.245526 0.609583,0.364056 0.347123,0.11853 0.609583,0.11853 0.09313,0 0.169328,-0.01693 0.0762,-0.01693 0.11853,-0.0508 0.0508,-0.04233 0.0762,-0.08466 0.03387,-0.0508 0.03387,-0.110064 0,-0.143929 -0.14393,-0.220127 -0.0762,-0.03387 -0.253992,-0.08467 -0.169329,-0.05926 -0.457188,-0.126996 -0.35559,-0.09313 -0.634982,-0.220127 -0.279392,-0.135463 -0.47412,-0.313258 -0.186261,-0.177795 -0.296325,-0.406389 -0.101597,-0.23706 -0.101597,-0.516452 0,-0.338657 0.152396,-0.601116 0.152395,-0.26246 0.423321,-0.448721 0.270926,-0.194728 0.609583,-0.287859 0.338657,-0.101597 0.694247,-0.101597 0.397922,0 0.745046,0.08466 0.35559,0.0762 0.660382,0.228594 0.313257,0.143929 0.558784,0.35559 l -0.812777,0.897442 q -0.14393,-0.126997 -0.338658,-0.23706 -0.186261,-0.110064 -0.389455,-0.177795 -0.203195,-0.0762 -0.38099,-0.0762 -0.110063,0 -0.186261,0.01693 -0.0762,0.01693 -0.126997,0.0508 -0.0508,0.03387 -0.0762,0.08466 -0.0254,0.0508 -0.0254,0.110064 0,0.0762 0.04233,0.143929 0.04233,0.06773 0.135463,0.110064 0.0762,0.04233 0.253993,0.110063 0.186262,0.05927 0.533385,0.152396 0.389456,0.110064 0.677315,0.253993 0.287858,0.143929 0.465653,0.330191 0.126997,0.143929 0.194728,0.321724 0.06773,0.169329 0.06773,0.38099 0,0.44872 -0.26246,0.80431 -0.253993,0.347124 -0.702713,0.550318 -0.448721,0.194728 -1.024438,0.194728 z m 2.494956,-0.08466 v -6.265158 h 1.54089 v 2.666925 l -0.321724,0.101597 q 0.08466,-0.321724 0.330191,-0.56725 0.245526,-0.253993 0.584183,-0.397923 0.338658,-0.143929 0.711181,-0.143929 0.507985,0 0.855109,0.211661 0.35559,0.203194 0.533385,0.618049 0.186261,0.406389 0.186261,0.999039 v 2.776989 h -1.574755 v -2.649993 q 0,-0.220127 -0.06773,-0.364056 -0.06773,-0.152396 -0.203194,-0.228594 -0.135463,-0.0762 -0.321725,-0.06773 -0.143929,0 -0.270925,0.04233 -0.11853,0.04233 -0.211661,0.135463 -0.09313,0.08466 -0.143929,0.194728 -0.04233,0.110063 -0.04233,0.245526 v 2.692325 h -0.787378 q -0.287859,0 -0.491053,0 -0.194728,0 -0.304792,0 z m 6.948293,0.0762 q -0.558784,0 -1.007505,-0.296325 -0.440254,-0.304792 -0.702714,-0.82971 -0.253993,-0.533386 -0.253993,-1.2107 0,-0.694247 0.253993,-1.219166 0.253993,-0.524918 0.702714,-0.821243 0.448721,-0.304792 1.032904,-0.304792 0.313258,0 0.575718,0.08466 0.262459,0.08467 0.457187,0.245527 0.194728,0.160862 0.338657,0.364056 0.143929,0.203195 0.23706,0.440255 l -0.321724,-0.01693 v -1.024438 h 1.549356 v 4.512607 h -1.583222 v -1.100636 l 0.347124,0.01693 q -0.0762,0.245526 -0.228594,0.457187 -0.143929,0.211661 -0.35559,0.372523 -0.211661,0.152396 -0.47412,0.245526 -0.253993,0.08467 -0.567251,0.08467 z m 0.448721,-1.295364 q 0.270926,0 0.465653,-0.11853 0.194728,-0.126996 0.296325,-0.364057 0.110064,-0.23706 0.110064,-0.558784 0,-0.330191 -0.110064,-0.567251 -0.101597,-0.23706 -0.296325,-0.35559 -0.194727,-0.126996 -0.465653,-0.126996 -0.270926,0 -0.465654,0.126996 -0.186261,0.11853 -0.287858,0.35559 -0.101598,0.23706 -0.101598,0.567251 0,0.321724 0.101598,0.558784 0.101597,0.237061 0.287858,0.364057 0.194728,0.11853 0.465654,0.11853 z"
         id="path16" />
    </g>
  </g>
</svg>
